<?xml version="1.0" encoding="UTF-8" standalone="no"?>
<!DOCTYPE svg PUBLIC "-//W3C//DTD SVG 1.1//EN"
 "http://www.w3.org/Graphics/SVG/1.1/DTD/svg11.dtd">
<!-- Generated by graphviz version 8.1.0 (20230707.0739)
 -->
<!-- Title: G Pages: 1 -->
<svg width="1538pt" height="513pt"
 viewBox="0.00 0.00 1538.20 512.70" xmlns="http://www.w3.org/2000/svg" xmlns:xlink="http://www.w3.org/1999/xlink">
<g id="graph0" class="graph" transform="scale(1 1) rotate(0) translate(21.6 491.1)">
<title>G</title>
<polygon fill="#111111" stroke="none" points="-21.6,21.6 -21.6,-491.1 1516.6,-491.1 1516.6,21.6 -21.6,21.6"/>
<!-- Game/Game.js -->
<g id="node1" class="node">
<title>Game/Game.js</title>
<path fill="none" stroke="#c6c5fe" d="M469.58,-228.5C469.58,-228.5 373.92,-228.5 373.92,-228.5 369.83,-228.5 365.75,-224.42 365.75,-220.33 365.75,-220.33 365.75,-212.17 365.75,-212.17 365.75,-208.08 369.83,-204 373.92,-204 373.92,-204 469.58,-204 469.58,-204 473.67,-204 477.75,-208.08 477.75,-212.17 477.75,-212.17 477.75,-220.33 477.75,-220.33 477.75,-224.42 473.67,-228.5 469.58,-228.5"/>
<text text-anchor="middle" x="421.75" y="-211.2" font-family="Arial" font-size="14.00" fill="#c6c5fe">Game/Game.js</text>
</g>
<!-- Game/config/types.js -->
<g id="node2" class="node">
<title>Game/config/types.js</title>
<path fill="none" stroke="#cfffac" d="M1209.83,-174.5C1209.83,-174.5 1075.92,-174.5 1075.92,-174.5 1071.83,-174.5 1067.75,-170.42 1067.75,-166.33 1067.75,-166.33 1067.75,-158.17 1067.75,-158.17 1067.75,-154.08 1071.83,-150 1075.92,-150 1075.92,-150 1209.83,-150 1209.83,-150 1213.92,-150 1218,-154.08 1218,-158.17 1218,-158.17 1218,-166.33 1218,-166.33 1218,-170.42 1213.92,-174.5 1209.83,-174.5"/>
<text text-anchor="middle" x="1142.88" y="-157.2" font-family="Arial" font-size="14.00" fill="#cfffac">Game/config/types.js</text>
</g>
<!-- Game/Game.js&#45;&gt;Game/config/types.js -->
<g id="edge1" class="edge">
<title>Game/Game.js&#45;&gt;Game/config/types.js</title>
<path fill="none" stroke="#757575" d="M444.14,-228.97C471.87,-244.66 522.25,-270.43 569.25,-280.25 661.37,-299.49 688.33,-296.65 781,-280.25 903.43,-258.59 924.45,-219.26 1043.75,-184.25 1051.91,-181.86 1060.51,-179.58 1069.1,-177.46"/>
<polygon fill="#757575" stroke="#757575" points="1069.63,-180.69 1078.53,-174.95 1067.99,-173.88 1069.63,-180.69"/>
</g>
<!-- Game/context/SharedContext.js -->
<g id="node3" class="node">
<title>Game/context/SharedContext.js</title>
<path fill="none" stroke="#cfffac" d="M1486.83,-225.5C1486.83,-225.5 1286.17,-225.5 1286.17,-225.5 1282.08,-225.5 1278,-221.42 1278,-217.33 1278,-217.33 1278,-209.17 1278,-209.17 1278,-205.08 1282.08,-201 1286.17,-201 1286.17,-201 1486.83,-201 1486.83,-201 1490.92,-201 1495,-205.08 1495,-209.17 1495,-209.17 1495,-217.33 1495,-217.33 1495,-221.42 1490.92,-225.5 1486.83,-225.5"/>
<text text-anchor="middle" x="1386.5" y="-208.2" font-family="Arial" font-size="14.00" fill="#cfffac">Game/context/SharedContext.js</text>
</g>
<!-- Game/Game.js&#45;&gt;Game/context/SharedContext.js -->
<g id="edge2" class="edge">
<title>Game/Game.js&#45;&gt;Game/context/SharedContext.js</title>
<path fill="none" stroke="#757575" d="M434.15,-203.8C456.98,-179.88 511.16,-128.2 569.25,-109.25 853.82,-16.39 956.07,-52.67 1242,-141.25 1283.68,-154.16 1328.04,-178.21 1356.22,-194.94"/>
<polygon fill="#757575" stroke="#757575" points="1354.12,-198.36 1364.49,-200.52 1357.73,-192.36 1354.12,-198.36"/>
</g>
<!-- Game/core/Camera.js -->
<g id="node4" class="node">
<title>Game/core/Camera.js</title>
<path fill="none" stroke="#cfffac" d="M744.71,-271.5C744.71,-271.5 605.54,-271.5 605.54,-271.5 601.46,-271.5 597.38,-267.42 597.38,-263.33 597.38,-263.33 597.38,-255.17 597.38,-255.17 597.38,-251.08 601.46,-247 605.54,-247 605.54,-247 744.71,-247 744.71,-247 748.79,-247 752.88,-251.08 752.88,-255.17 752.88,-255.17 752.88,-263.33 752.88,-263.33 752.88,-267.42 748.79,-271.5 744.71,-271.5"/>
<text text-anchor="middle" x="675.12" y="-254.2" font-family="Arial" font-size="14.00" fill="#cfffac">Game/core/Camera.js</text>
</g>
<!-- Game/Game.js&#45;&gt;Game/core/Camera.js -->
<g id="edge3" class="edge">
<title>Game/Game.js&#45;&gt;Game/core/Camera.js</title>
<path fill="none" stroke="#757575" d="M478.23,-225.74C510.73,-231.3 552.46,-238.44 589.04,-244.7"/>
<polygon fill="#757575" stroke="#757575" points="588.27,-248.28 598.71,-246.52 589.45,-241.39 588.27,-248.28"/>
</g>
<!-- Game/core/Renderer.js -->
<g id="node5" class="node">
<title>Game/core/Renderer.js</title>
<path fill="none" stroke="#cfffac" d="M749.58,-228.5C749.58,-228.5 600.67,-228.5 600.67,-228.5 596.58,-228.5 592.5,-224.42 592.5,-220.33 592.5,-220.33 592.5,-212.17 592.5,-212.17 592.5,-208.08 596.58,-204 600.67,-204 600.67,-204 749.58,-204 749.58,-204 753.67,-204 757.75,-208.08 757.75,-212.17 757.75,-212.17 757.75,-220.33 757.75,-220.33 757.75,-224.42 753.67,-228.5 749.58,-228.5"/>
<text text-anchor="middle" x="675.12" y="-211.2" font-family="Arial" font-size="14.00" fill="#cfffac">Game/core/Renderer.js</text>
</g>
<!-- Game/Game.js&#45;&gt;Game/core/Renderer.js -->
<g id="edge4" class="edge">
<title>Game/Game.js&#45;&gt;Game/core/Renderer.js</title>
<path fill="none" stroke="#757575" d="M478.23,-216.25C508.49,-216.25 546.76,-216.25 581.42,-216.25"/>
<polygon fill="#757575" stroke="#757575" points="581.05,-219.75 591.05,-216.25 581.05,-212.75 581.05,-219.75"/>
</g>
<!-- Game/ui/Menu.js -->
<g id="node6" class="node">
<title>Game/ui/Menu.js</title>
<path fill="none" stroke="#cfffac" d="M727.83,-185.5C727.83,-185.5 622.42,-185.5 622.42,-185.5 618.33,-185.5 614.25,-181.42 614.25,-177.33 614.25,-177.33 614.25,-169.17 614.25,-169.17 614.25,-165.08 618.33,-161 622.42,-161 622.42,-161 727.83,-161 727.83,-161 731.92,-161 736,-165.08 736,-169.17 736,-169.17 736,-177.33 736,-177.33 736,-181.42 731.92,-185.5 727.83,-185.5"/>
<text text-anchor="middle" x="675.12" y="-168.2" font-family="Arial" font-size="14.00" fill="#cfffac">Game/ui/Menu.js</text>
</g>
<!-- Game/Game.js&#45;&gt;Game/ui/Menu.js -->
<g id="edge5" class="edge">
<title>Game/Game.js&#45;&gt;Game/ui/Menu.js</title>
<path fill="none" stroke="#757575" d="M478.23,-206.76C515.05,-200.46 563.7,-192.14 603.31,-185.36"/>
<polygon fill="#757575" stroke="#757575" points="603.69,-188.68 612.96,-183.54 602.51,-181.78 603.69,-188.68"/>
</g>
<!-- Game/ui/Sizes.js -->
<g id="node7" class="node">
<title>Game/ui/Sizes.js</title>
<path fill="none" stroke="#c6c5fe" d="M728.21,-142.5C728.21,-142.5 622.04,-142.5 622.04,-142.5 617.96,-142.5 613.88,-138.42 613.88,-134.33 613.88,-134.33 613.88,-126.17 613.88,-126.17 613.88,-122.08 617.96,-118 622.04,-118 622.04,-118 728.21,-118 728.21,-118 732.29,-118 736.38,-122.08 736.38,-126.17 736.38,-126.17 736.38,-134.33 736.38,-134.33 736.38,-138.42 732.29,-142.5 728.21,-142.5"/>
<text text-anchor="middle" x="675.12" y="-125.2" font-family="Arial" font-size="14.00" fill="#c6c5fe">Game/ui/Sizes.js</text>
</g>
<!-- Game/Game.js&#45;&gt;Game/ui/Sizes.js -->
<g id="edge6" class="edge">
<title>Game/Game.js&#45;&gt;Game/ui/Sizes.js</title>
<path fill="none" stroke="#757575" d="M447.55,-203.54C476.21,-189.3 525.1,-166.36 569.25,-152.25 579.93,-148.84 591.39,-145.81 602.67,-143.18"/>
<polygon fill="#757575" stroke="#757575" points="603.41,-146.38 612.4,-140.78 601.88,-139.55 603.41,-146.38"/>
</g>
<!-- Game/world/World.js -->
<g id="node8" class="node">
<title>Game/world/World.js</title>
<path fill="none" stroke="#c6c5fe" d="M978.58,-349.5C978.58,-349.5 846.17,-349.5 846.17,-349.5 842.08,-349.5 838,-345.42 838,-341.33 838,-341.33 838,-333.17 838,-333.17 838,-329.08 842.08,-325 846.17,-325 846.17,-325 978.58,-325 978.58,-325 982.67,-325 986.75,-329.08 986.75,-333.17 986.75,-333.17 986.75,-341.33 986.75,-341.33 986.75,-345.42 982.67,-349.5 978.58,-349.5"/>
<text text-anchor="middle" x="912.38" y="-332.2" font-family="Arial" font-size="14.00" fill="#c6c5fe">Game/world/World.js</text>
</g>
<!-- Game/Game.js&#45;&gt;Game/world/World.js -->
<g id="edge7" class="edge">
<title>Game/Game.js&#45;&gt;Game/world/World.js</title>
<path fill="none" stroke="#757575" d="M436.38,-228.89C460.82,-250.67 514.66,-294.71 569.25,-313.25 653.58,-341.89 756.16,-345.26 826.87,-343.11"/>
<polygon fill="#757575" stroke="#757575" points="826.63,-346.58 836.5,-342.73 826.39,-339.59 826.63,-346.58"/>
</g>
<!-- Game/world/WorldOpponent.js -->
<g id="node9" class="node">
<title>Game/world/WorldOpponent.js</title>
<path fill="none" stroke="#c6c5fe" d="M772.83,-389.5C772.83,-389.5 577.42,-389.5 577.42,-389.5 573.33,-389.5 569.25,-385.42 569.25,-381.33 569.25,-381.33 569.25,-373.17 569.25,-373.17 569.25,-369.08 573.33,-365 577.42,-365 577.42,-365 772.83,-365 772.83,-365 776.92,-365 781,-369.08 781,-373.17 781,-373.17 781,-381.33 781,-381.33 781,-385.42 776.92,-389.5 772.83,-389.5"/>
<text text-anchor="middle" x="675.12" y="-372.2" font-family="Arial" font-size="14.00" fill="#c6c5fe">Game/world/WorldOpponent.js</text>
</g>
<!-- Game/Game.js&#45;&gt;Game/world/WorldOpponent.js -->
<g id="edge8" class="edge">
<title>Game/Game.js&#45;&gt;Game/world/WorldOpponent.js</title>
<path fill="none" stroke="#757575" d="M432.62,-228.9C454.29,-255.78 508.95,-318.79 569.25,-351.25 576.37,-355.08 584.07,-358.36 591.94,-361.17"/>
<polygon fill="#757575" stroke="#757575" points="590.78,-364.79 601.37,-364.58 592.96,-358.14 590.78,-364.79"/>
</g>
<!-- Game/utils/EventEmmiter.js -->
<g id="node14" class="node">
<title>Game/utils/EventEmmiter.js</title>
<path fill="none" stroke="#cfffac" d="M999.58,-142.5C999.58,-142.5 825.17,-142.5 825.17,-142.5 821.08,-142.5 817,-138.42 817,-134.33 817,-134.33 817,-126.17 817,-126.17 817,-122.08 821.08,-118 825.17,-118 825.17,-118 999.58,-118 999.58,-118 1003.67,-118 1007.75,-122.08 1007.75,-126.17 1007.75,-126.17 1007.75,-134.33 1007.75,-134.33 1007.75,-138.42 1003.67,-142.5 999.58,-142.5"/>
<text text-anchor="middle" x="912.38" y="-125.2" font-family="Arial" font-size="14.00" fill="#cfffac">Game/utils/EventEmmiter.js</text>
</g>
<!-- Game/ui/Sizes.js&#45;&gt;Game/utils/EventEmmiter.js -->
<g id="edge14" class="edge">
<title>Game/ui/Sizes.js&#45;&gt;Game/utils/EventEmmiter.js</title>
<path fill="none" stroke="#757575" d="M736.71,-130.25C757.84,-130.25 782.21,-130.25 805.92,-130.25"/>
<polygon fill="#757575" stroke="#757575" points="805.75,-133.75 815.75,-130.25 805.75,-126.75 805.75,-133.75"/>
</g>
<!-- Game/world/World.js&#45;&gt;Game/config/types.js -->
<g id="edge16" class="edge">
<title>Game/world/World.js&#45;&gt;Game/config/types.js</title>
<path fill="none" stroke="#757575" d="M987.11,-325.25C994.73,-321.69 1001.84,-317.12 1007.75,-311.25 1049.39,-269.92 1001.13,-224.56 1043.75,-184.25 1047.85,-180.38 1052.47,-177.13 1057.43,-174.41"/>
<polygon fill="#757575" stroke="#757575" points="1058.72,-177.21 1066.31,-169.82 1055.76,-170.86 1058.72,-177.21"/>
</g>
<!-- Game/client/SocketClient.js -->
<g id="node11" class="node">
<title>Game/client/SocketClient.js</title>
<path fill="none" stroke="#cfffac" d="M1229.71,-432.5C1229.71,-432.5 1056.04,-432.5 1056.04,-432.5 1051.96,-432.5 1047.88,-428.42 1047.88,-424.33 1047.88,-424.33 1047.88,-416.17 1047.88,-416.17 1047.88,-412.08 1051.96,-408 1056.04,-408 1056.04,-408 1229.71,-408 1229.71,-408 1233.79,-408 1237.88,-412.08 1237.88,-416.17 1237.88,-416.17 1237.88,-424.33 1237.88,-424.33 1237.88,-428.42 1233.79,-432.5 1229.71,-432.5"/>
<text text-anchor="middle" x="1142.88" y="-415.2" font-family="Arial" font-size="14.00" fill="#cfffac">Game/client/SocketClient.js</text>
</g>
<!-- Game/world/World.js&#45;&gt;Game/client/SocketClient.js -->
<g id="edge15" class="edge">
<title>Game/world/World.js&#45;&gt;Game/client/SocketClient.js</title>
<path fill="none" stroke="#757575" d="M974.02,-349.95C985.63,-353.65 997.38,-358.35 1007.75,-364.25 1026.87,-375.14 1024.32,-387.92 1043.75,-398.25 1047.65,-400.32 1051.74,-402.2 1055.94,-403.91"/>
<polygon fill="#757575" stroke="#757575" points="1054.32,-407.41 1064.92,-407.57 1056.74,-400.84 1054.32,-407.41"/>
</g>
<!-- Game/utils/Effects.js -->
<g id="node15" class="node">
<title>Game/utils/Effects.js</title>
<path fill="none" stroke="#cfffac" d="M1208.33,-303.5C1208.33,-303.5 1077.42,-303.5 1077.42,-303.5 1073.33,-303.5 1069.25,-299.42 1069.25,-295.33 1069.25,-295.33 1069.25,-287.17 1069.25,-287.17 1069.25,-283.08 1073.33,-279 1077.42,-279 1077.42,-279 1208.33,-279 1208.33,-279 1212.42,-279 1216.5,-283.08 1216.5,-287.17 1216.5,-287.17 1216.5,-295.33 1216.5,-295.33 1216.5,-299.42 1212.42,-303.5 1208.33,-303.5"/>
<text text-anchor="middle" x="1142.88" y="-286.2" font-family="Arial" font-size="14.00" fill="#cfffac">Game/utils/Effects.js</text>
</g>
<!-- Game/world/World.js&#45;&gt;Game/utils/Effects.js -->
<g id="edge17" class="edge">
<title>Game/world/World.js&#45;&gt;Game/utils/Effects.js</title>
<path fill="none" stroke="#757575" d="M976.42,-324.56C1004.77,-318.85 1038.43,-312.07 1067.96,-306.13"/>
<polygon fill="#757575" stroke="#757575" points="1068.53,-309.38 1077.64,-303.98 1067.15,-302.52 1068.53,-309.38"/>
</g>
<!-- Game/utils/Intersections.js -->
<g id="node16" class="node">
<title>Game/utils/Intersections.js</title>
<path fill="none" stroke="#cfffac" d="M1226.33,-260.5C1226.33,-260.5 1059.42,-260.5 1059.42,-260.5 1055.33,-260.5 1051.25,-256.42 1051.25,-252.33 1051.25,-252.33 1051.25,-244.17 1051.25,-244.17 1051.25,-240.08 1055.33,-236 1059.42,-236 1059.42,-236 1226.33,-236 1226.33,-236 1230.42,-236 1234.5,-240.08 1234.5,-244.17 1234.5,-244.17 1234.5,-252.33 1234.5,-252.33 1234.5,-256.42 1230.42,-260.5 1226.33,-260.5"/>
<text text-anchor="middle" x="1142.88" y="-243.2" font-family="Arial" font-size="14.00" fill="#cfffac">Game/utils/Intersections.js</text>
</g>
<!-- Game/world/World.js&#45;&gt;Game/utils/Intersections.js -->
<g id="edge18" class="edge">
<title>Game/world/World.js&#45;&gt;Game/utils/Intersections.js</title>
<path fill="none" stroke="#757575" d="M978.94,-324.55C989.01,-321.11 998.96,-316.75 1007.75,-311.25 1028.3,-298.38 1022.89,-282.62 1043.75,-270.25 1046.96,-268.34 1050.32,-266.6 1053.79,-265.01"/>
<polygon fill="#757575" stroke="#757575" points="1054.85,-267.95 1062.77,-260.92 1052.19,-261.47 1054.85,-267.95"/>
</g>
<!-- Game/utils/PhysicsUtils.js -->
<g id="node17" class="node">
<title>Game/utils/PhysicsUtils.js</title>
<path fill="none" stroke="#cfffac" d="M1223.71,-217.5C1223.71,-217.5 1062.04,-217.5 1062.04,-217.5 1057.96,-217.5 1053.88,-213.42 1053.88,-209.33 1053.88,-209.33 1053.88,-201.17 1053.88,-201.17 1053.88,-197.08 1057.96,-193 1062.04,-193 1062.04,-193 1223.71,-193 1223.71,-193 1227.79,-193 1231.88,-197.08 1231.88,-201.17 1231.88,-201.17 1231.88,-209.33 1231.88,-209.33 1231.88,-213.42 1227.79,-217.5 1223.71,-217.5"/>
<text text-anchor="middle" x="1142.88" y="-200.2" font-family="Arial" font-size="14.00" fill="#cfffac">Game/utils/PhysicsUtils.js</text>
</g>
<!-- Game/world/World.js&#45;&gt;Game/utils/PhysicsUtils.js -->
<g id="edge19" class="edge">
<title>Game/world/World.js&#45;&gt;Game/utils/PhysicsUtils.js</title>
<path fill="none" stroke="#757575" d="M985.92,-324.69C993.84,-321.23 1001.35,-316.84 1007.75,-311.25 1038.36,-284.55 1012.51,-253.21 1043.75,-227.25 1045.41,-225.87 1047.14,-224.57 1048.93,-223.35"/>
<polygon fill="#757575" stroke="#757575" points="1050.44,-225.94 1057.31,-217.87 1046.91,-219.89 1050.44,-225.94"/>
</g>
<!-- Game/world/WorldPhysics.js -->
<g id="node18" class="node">
<title>Game/world/WorldPhysics.js</title>
<path fill="none" stroke="#cfffac" d="M1233.83,-389.5C1233.83,-389.5 1051.92,-389.5 1051.92,-389.5 1047.83,-389.5 1043.75,-385.42 1043.75,-381.33 1043.75,-381.33 1043.75,-373.17 1043.75,-373.17 1043.75,-369.08 1047.83,-365 1051.92,-365 1051.92,-365 1233.83,-365 1233.83,-365 1237.92,-365 1242,-369.08 1242,-373.17 1242,-373.17 1242,-381.33 1242,-381.33 1242,-385.42 1237.92,-389.5 1233.83,-389.5"/>
<text text-anchor="middle" x="1142.88" y="-372.2" font-family="Arial" font-size="14.00" fill="#cfffac">Game/world/WorldPhysics.js</text>
</g>
<!-- Game/world/World.js&#45;&gt;Game/world/WorldPhysics.js -->
<g id="edge20" class="edge">
<title>Game/world/World.js&#45;&gt;Game/world/WorldPhysics.js</title>
<path fill="none" stroke="#757575" d="M985.99,-349.96C1008.99,-353.99 1034.61,-358.47 1058.32,-362.62"/>
<polygon fill="#757575" stroke="#757575" points="1057.61,-366.23 1068.06,-364.5 1058.81,-359.33 1057.61,-366.23"/>
</g>
<!-- Game/world/WorldUi.js -->
<g id="node19" class="node">
<title>Game/world/WorldUi.js</title>
<path fill="none" stroke="#c6c5fe" d="M1215.46,-346.5C1215.46,-346.5 1070.29,-346.5 1070.29,-346.5 1066.21,-346.5 1062.12,-342.42 1062.12,-338.33 1062.12,-338.33 1062.12,-330.17 1062.12,-330.17 1062.12,-326.08 1066.21,-322 1070.29,-322 1070.29,-322 1215.46,-322 1215.46,-322 1219.54,-322 1223.62,-326.08 1223.62,-330.17 1223.62,-330.17 1223.62,-338.33 1223.62,-338.33 1223.62,-342.42 1219.54,-346.5 1215.46,-346.5"/>
<text text-anchor="middle" x="1142.88" y="-329.2" font-family="Arial" font-size="14.00" fill="#c6c5fe">Game/world/WorldUi.js</text>
</g>
<!-- Game/world/World.js&#45;&gt;Game/world/WorldUi.js -->
<g id="edge21" class="edge">
<title>Game/world/World.js&#45;&gt;Game/world/WorldUi.js</title>
<path fill="none" stroke="#757575" d="M987.25,-336.28C1007.57,-336.01 1029.84,-335.72 1051,-335.44"/>
<polygon fill="#757575" stroke="#757575" points="1050.99,-338.93 1060.94,-335.3 1050.9,-331.93 1050.99,-338.93"/>
</g>
<!-- Game/world/WorldOpponent.js&#45;&gt;Game/world/World.js -->
<g id="edge23" class="edge">
<title>Game/world/WorldOpponent.js&#45;&gt;Game/world/World.js</title>
<path fill="none" stroke="#757575" d="M750.88,-364.54C775.13,-360.42 802.2,-355.81 827.1,-351.58"/>
<polygon fill="#757575" stroke="#757575" points="827.35,-354.92 836.62,-349.79 826.17,-348.02 827.35,-354.92"/>
</g>
<!-- Game/world/WorldOpponent.js&#45;&gt;Game/client/SocketClient.js -->
<g id="edge22" class="edge">
<title>Game/world/WorldOpponent.js&#45;&gt;Game/client/SocketClient.js</title>
<path fill="none" stroke="#757575" d="M781.16,-384.2C846.44,-388.83 932.06,-395.49 1007.75,-403.25 1017.18,-404.22 1026.97,-405.3 1036.78,-406.44"/>
<polygon fill="#757575" stroke="#757575" points="1036.07,-410 1046.41,-407.7 1036.89,-403.05 1036.07,-410"/>
</g>
<!-- Game/GameController.js -->
<g id="node10" class="node">
<title>Game/GameController.js</title>
<path fill="none" stroke="#c6c5fe" d="M266.08,-146.5C266.08,-146.5 108.92,-146.5 108.92,-146.5 104.83,-146.5 100.75,-142.42 100.75,-138.33 100.75,-138.33 100.75,-130.17 100.75,-130.17 100.75,-126.08 104.83,-122 108.92,-122 108.92,-122 266.08,-122 266.08,-122 270.17,-122 274.25,-126.08 274.25,-130.17 274.25,-130.17 274.25,-138.33 274.25,-138.33 274.25,-142.42 270.17,-146.5 266.08,-146.5"/>
<text text-anchor="middle" x="187.5" y="-129.2" font-family="Arial" font-size="14.00" fill="#c6c5fe">Game/GameController.js</text>
</g>
<!-- Game/GameController.js&#45;&gt;Game/Game.js -->
<g id="edge9" class="edge">
<title>Game/GameController.js&#45;&gt;Game/Game.js</title>
<path fill="none" stroke="#757575" d="M224.53,-146.97C264.99,-161.26 330.74,-184.47 374.85,-200.04"/>
<polygon fill="#757575" stroke="#757575" points="373.42,-203.6 384.01,-203.63 375.75,-197 373.42,-203.6"/>
</g>
<!-- Game/GameController.js&#45;&gt;Game/config/types.js -->
<g id="edge11" class="edge">
<title>Game/GameController.js&#45;&gt;Game/config/types.js</title>
<path fill="none" stroke="#757575" d="M261.39,-121.52C405.49,-98.65 736.39,-57.58 1007.75,-109.25 1043.52,-116.06 1081.93,-132.24 1108.44,-144.94"/>
<polygon fill="#757575" stroke="#757575" points="1106.47,-148.36 1116.99,-149.61 1109.54,-142.07 1106.47,-148.36"/>
</g>
<!-- Game/GameController.js&#45;&gt;Game/client/SocketClient.js -->
<g id="edge10" class="edge">
<title>Game/GameController.js&#45;&gt;Game/client/SocketClient.js</title>
<path fill="none" stroke="#757575" d="M200.39,-146.89C244.1,-192.27 401.97,-347 569.25,-398.25 726.64,-446.47 919.79,-441.55 1036.72,-432.04"/>
<polygon fill="#757575" stroke="#757575" points="1036.78,-435.46 1046.45,-431.13 1036.19,-428.48 1036.78,-435.46"/>
</g>
<!-- Game/utils/domHandler.js -->
<g id="node12" class="node">
<title>Game/utils/domHandler.js</title>
<path fill="none" stroke="#cfffac" d="M502.96,-24.5C502.96,-24.5 340.54,-24.5 340.54,-24.5 336.46,-24.5 332.38,-20.42 332.38,-16.33 332.38,-16.33 332.38,-8.17 332.38,-8.17 332.38,-4.08 336.46,0 340.54,0 340.54,0 502.96,0 502.96,0 507.04,0 511.12,-4.08 511.12,-8.17 511.12,-8.17 511.12,-16.33 511.12,-16.33 511.12,-20.42 507.04,-24.5 502.96,-24.5"/>
<text text-anchor="middle" x="421.75" y="-7.2" font-family="Arial" font-size="14.00" fill="#cfffac">Game/utils/domHandler.js</text>
</g>
<!-- Game/GameController.js&#45;&gt;Game/utils/domHandler.js -->
<g id="edge12" class="edge">
<title>Game/GameController.js&#45;&gt;Game/utils/domHandler.js</title>
<path fill="none" stroke="#757575" d="M251.48,-121.65C259.69,-118.21 267.56,-113.83 274.25,-108.25 301.12,-85.84 282.69,-59.79 310.25,-38.25 314.4,-35.01 318.89,-32.16 323.59,-29.66"/>
<polygon fill="#757575" stroke="#757575" points="324.97,-32.41 332.53,-24.99 321.99,-26.07 324.97,-32.41"/>
</g>
<!-- Game/utils/dvdCollisionEngine.js -->
<g id="node13" class="node">
<title>Game/utils/dvdCollisionEngine.js</title>
<path fill="none" stroke="#cfffac" d="M525.08,-469.5C525.08,-469.5 318.42,-469.5 318.42,-469.5 314.33,-469.5 310.25,-465.42 310.25,-461.33 310.25,-461.33 310.25,-453.17 310.25,-453.17 310.25,-449.08 314.33,-445 318.42,-445 318.42,-445 525.08,-445 525.08,-445 529.17,-445 533.25,-449.08 533.25,-453.17 533.25,-453.17 533.25,-461.33 533.25,-461.33 533.25,-465.42 529.17,-469.5 525.08,-469.5"/>
<text text-anchor="middle" x="421.75" y="-452.2" font-family="Arial" font-size="14.00" fill="#cfffac">Game/utils/dvdCollisionEngine.js</text>
</g>
<!-- Game/GameController.js&#45;&gt;Game/utils/dvdCollisionEngine.js -->
<g id="edge13" class="edge">
<title>Game/GameController.js&#45;&gt;Game/utils/dvdCollisionEngine.js</title>
<path fill="none" stroke="#757575" d="M189.64,-146.73C194.53,-192.47 217.84,-352.39 310.25,-431.25 313.93,-434.39 317.93,-437.17 322.14,-439.63"/>
<polygon fill="#757575" stroke="#757575" points="320.17,-443.07 330.67,-444.51 323.36,-436.83 320.17,-443.07"/>
</g>
<!-- Game/world/WorldUi.js&#45;&gt;Game/context/SharedContext.js -->
<g id="edge24" class="edge">
<title>Game/world/WorldUi.js&#45;&gt;Game/context/SharedContext.js</title>
<path fill="none" stroke="#757575" d="M1215.65,-321.53C1224.69,-318.95 1233.68,-315.89 1242,-312.25 1288.84,-291.77 1336.34,-255.22 1363.24,-232.72"/>
<polygon fill="#757575" stroke="#757575" points="1365.18,-234.81 1370.54,-225.67 1360.65,-229.47 1365.18,-234.81"/>
</g>
<!-- script.js -->
<g id="node20" class="node">
<title>script.js</title>
<path fill="none" stroke="#c6c5fe" d="M56.58,-126.5C56.58,-126.5 8.17,-126.5 8.17,-126.5 4.08,-126.5 0,-122.42 0,-118.33 0,-118.33 0,-110.17 0,-110.17 0,-106.08 4.08,-102 8.17,-102 8.17,-102 56.58,-102 56.58,-102 60.67,-102 64.75,-106.08 64.75,-110.17 64.75,-110.17 64.75,-118.33 64.75,-118.33 64.75,-122.42 60.67,-126.5 56.58,-126.5"/>
<text text-anchor="middle" x="32.38" y="-109.2" font-family="Arial" font-size="14.00" fill="#c6c5fe">script.js</text>
</g>
<!-- script.js&#45;&gt;Game/GameController.js -->
<g id="edge25" class="edge">
<title>script.js&#45;&gt;Game/GameController.js</title>
<path fill="none" stroke="#757575" d="M65.1,-118.39C72.58,-119.37 80.93,-120.46 89.66,-121.6"/>
<polygon fill="#757575" stroke="#757575" points="89.1,-125.19 99.47,-123.01 90.01,-118.25 89.1,-125.19"/>
</g>
<!-- script.js&#45;&gt;Game/utils/domHandler.js -->
<g id="edge26" class="edge">
<title>script.js&#45;&gt;Game/utils/domHandler.js</title>
<path fill="none" stroke="#757575" d="M65.25,-105.09C116.66,-90.41 221.13,-60.96 310.25,-38.25 324.54,-34.61 339.92,-30.87 354.53,-27.41"/>
<polygon fill="#757575" stroke="#757575" points="355.07,-30.64 364.01,-24.95 353.47,-23.83 355.07,-30.64"/>
</g>
</g>
</svg>
